<svg xmlns="http://www.w3.org/2000/svg" width="600" height="360" viewBox="0 0 600 360">
  <rect width="600" height="360" fill="#FFF8F0"/>
  <!-- brand color swatches -->
  <rect x="60" y="60" width="72" height="72" rx="14" fill="#E8521A"/>
  <rect x="144" y="60" width="72" height="72" rx="14" fill="#F4A458"/>
  <rect x="228" y="60" width="72" height="72" rx="14" fill="#FDE8D0"/>
  <rect x="312" y="60" width="72" height="72" rx="14" fill="#1A1A18"/>
  <rect x="396" y="60" width="72" height="72" rx="14" fill="#F7F6F2"/>
  <!-- labels -->
  <text x="96" y="148" font-family="sans-serif" font-size="9" fill="#5A5A54" text-anchor="middle">#E8521A</text>
  <text x="180" y="148" font-family="sans-serif" font-size="9" fill="#5A5A54" text-anchor="middle">#F4A458</text>
  <text x="264" y="148" font-family="sans-serif" font-size="9" fill="#5A5A54" text-anchor="middle">#FDE8D0</text>
  <text x="348" y="148" font-family="sans-serif" font-size="9" fill="#5A5A54" text-anchor="middle">#1A1A18</text>
  <text x="432" y="148" font-family="sans-serif" font-size="9" fill="#5A5A54" text-anchor="middle">#F7F6F2</text>
  <!-- typography sample -->
  <rect x="60" y="168" width="480" height="80" rx="12" fill="white" opacity="0.8"/>
  <text x="80" y="195" font-family="Georgia,serif" font-weight="700" font-size="26" fill="#E8521A">Dapur Nusantara</text>
  <text x="80" y="215" font-family="sans-serif" font-size="11" fill="#5A5A54">Autentik · Hangat · Bercerita</text>
  <text x="80" y="234" font-family="sans-serif" font-size="10" fill="#9A9A94">Inter Regular — Tagline & body copy</text>
  <!-- logo mark -->
  <rect x="60" y="264" width="80" height="80" rx="16" fill="#E8521A"/>
  <text x="100" y="308" font-family="Georgia,serif" font-weight="700" font-size="28" fill="white" text-anchor="middle">DN</text>
  <!-- business card -->
  <rect x="160" y="264" width="190" height="80" rx="10" fill="#1A1A18"/>
  <text x="178" y="290" font-family="Georgia,serif" font-weight="700" font-size="13" fill="#F4A458">Dapur Nusantara</text>
  <text x="178" y="308" font-family="sans-serif" font-size="9" fill="rgba(255,255,255,0.6)">Chef Budi Santoso</text>
  <text x="178" y="322" font-family="sans-serif" font-size="9" fill="rgba(255,255,255,0.4)">budi@dapurnusantara.id</text>
  <text x="178" y="336" font-family="sans-serif" font-size="9" fill="rgba(255,255,255,0.4)">Bandung, Jawa Barat</text>
  <!-- icon set placeholder -->
  <rect x="368" y="264" width="172" height="80" rx="10" fill="#FDE8D0"/>
  <circle cx="400" cy="296" r="16" fill="#E8521A" opacity="0.25"/>
  <circle cx="440" cy="296" r="16" fill="#E8521A" opacity="0.35"/>
  <circle cx="480" cy="296" r="16" fill="#E8521A" opacity="0.50"/>
  <circle cx="520" cy="296" r="16" fill="#E8521A" opacity="0.70"/>
  <text x="445" y="330" font-family="sans-serif" font-size="9" fill="#9A9A94" text-anchor="middle">Icon Set</text>
</svg>
