<svg xmlns="http://www.w3.org/2000/svg" width="600" height="360" viewBox="0 0 600 360">
  <rect width="600" height="360" fill="#EBF1FE"/>
  <!-- top bar -->
  <rect x="0" y="0" width="600" height="44" fill="#2A6EF5"/>
  <circle cx="22" cy="22" r="7" fill="rgba(255,255,255,0.4)"/>
  <circle cx="42" cy="22" r="7" fill="rgba(255,255,255,0.4)"/>
  <circle cx="62" cy="22" r="7" fill="rgba(255,255,255,0.4)"/>
  <rect x="100" y="12" width="200" height="20" rx="4" fill="rgba(255,255,255,0.25)"/>
  <!-- sidebar -->
  <rect x="0" y="44" width="140" height="316" fill="#1a5ce0"/>
  <rect x="16" y="72" width="108" height="12" rx="4" fill="rgba(255,255,255,0.35)"/>
  <rect x="16" y="96" width="80" height="10" rx="4" fill="rgba(255,255,255,0.2)"/>
  <rect x="16" y="116" width="96" height="10" rx="4" fill="rgba(255,255,255,0.2)"/>
  <rect x="16" y="136" width="72" height="10" rx="4" fill="rgba(255,255,255,0.2)"/>
  <rect x="16" y="156" width="88" height="10" rx="4" fill="rgba(255,255,255,0.2)"/>
  <!-- stat cards -->
  <rect x="156" y="60" width="116" height="72" rx="10" fill="white" opacity="0.9"/>
  <rect x="284" y="60" width="116" height="72" rx="10" fill="white" opacity="0.9"/>
  <rect x="412" y="60" width="116" height="72" rx="10" fill="white" opacity="0.9"/>
  <text x="214" y="96" font-family="sans-serif" font-weight="700" font-size="22" fill="#2A6EF5" text-anchor="middle">84%</text>
  <text x="214" y="116" font-family="sans-serif" font-size="10" fill="#9A9A94" text-anchor="middle">Konversi</text>
  <text x="342" y="96" font-family="sans-serif" font-weight="700" font-size="22" fill="#2A6EF5" text-anchor="middle">2.4K</text>
  <text x="342" y="116" font-family="sans-serif" font-size="10" fill="#9A9A94" text-anchor="middle">Pengguna</text>
  <text x="470" y="96" font-family="sans-serif" font-weight="700" font-size="22" fill="#2A6EF5" text-anchor="middle">Rp 48M</text>
  <text x="470" y="116" font-family="sans-serif" font-size="10" fill="#9A9A94" text-anchor="middle">Pendapatan</text>
  <!-- chart area -->
  <rect x="156" y="148" width="372" height="140" rx="10" fill="white" opacity="0.9"/>
  <text x="172" y="170" font-family="sans-serif" font-size="11" font-weight="600" fill="#1A1A18">Grafik Penjualan</text>
  <!-- chart bars -->
  <rect x="180" y="230" width="28" height="40" rx="3" fill="#2A6EF5" opacity="0.7"/>
  <rect x="220" y="210" width="28" height="60" rx="3" fill="#2A6EF5" opacity="0.8"/>
  <rect x="260" y="195" width="28" height="75" rx="3" fill="#2A6EF5"/>
  <rect x="300" y="220" width="28" height="50" rx="3" fill="#2A6EF5" opacity="0.75"/>
  <rect x="340" y="185" width="28" height="85" rx="3" fill="#2A6EF5"/>
  <rect x="380" y="200" width="28" height="70" rx="3" fill="#2A6EF5" opacity="0.85"/>
  <rect x="420" y="175" width="28" height="95" rx="3" fill="#2A6EF5"/>
  <!-- bottom table -->
  <rect x="156" y="302" width="372" height="38" rx="8" fill="white" opacity="0.7"/>
  <rect x="172" y="314" width="80" height="8" rx="3" fill="#D0E2FF"/>
  <rect x="268" y="314" width="60" height="8" rx="3" fill="#D0E2FF"/>
  <rect x="344" y="314" width="60" height="8" rx="3" fill="#D0E2FF"/>
  <rect x="420" y="314" width="60" height="8" rx="3" fill="#D0E2FF"/>
</svg>
